<svg width="20" height="20" viewBox="0 0 20 20" fill="none" xmlns="http://www.w3.org/2000/svg">
    <path d="M10.0004 20.0001C4.47737 20.0001 0.000366211 15.5231 0.000366211 10.0001C0.000366211 4.47709 4.47737 9.15527e-05 10.0004 9.15527e-05C15.5234 9.15527e-05 20.0004 4.47709 20.0004 10.0001C20.0004 15.5231 15.5234 20.0001 10.0004 20.0001ZM10.0004 18.0001C12.1221 18.0001 14.1569 17.1572 15.6572 15.6569C17.1575 14.1567 18.0004 12.1218 18.0004 10.0001C18.0004 7.87836 17.1575 5.84353 15.6572 4.34324C14.1569 2.84295 12.1221 2.00009 10.0004 2.00009C7.87863 2.00009 5.8438 2.84295 4.34351 4.34324C2.84322 5.84353 2.00037 7.87836 2.00037 10.0001C2.00037 12.1218 2.84322 14.1567 4.34351 15.6569C5.8438 17.1572 7.87863 18.0001 10.0004 18.0001ZM9.00037 5.00009H11.0004V7.00009H9.00037V5.00009ZM9.00037 9.00009H11.0004V15.0001H9.00037V9.00009Z" fill="#1890FF"/>
</svg>