<svg width="12" height="14" viewBox="0 0 12 14" fill="none" xmlns="http://www.w3.org/2000/svg">
    <path d="M10.6667 5.66683H11.3333C11.5101 5.66683 11.6797 5.73707 11.8047 5.86209C11.9298 5.98712 12 6.15669 12 6.3335V13.0002C12 13.177 11.9298 13.3465 11.8047 13.4716C11.6797 13.5966 11.5101 13.6668 11.3333 13.6668H0.666667C0.489856 13.6668 0.320286 13.5966 0.195262 13.4716C0.0702379 13.3465 0 13.177 0 13.0002V6.3335C0 6.15669 0.0702379 5.98712 0.195262 5.86209C0.320286 5.73707 0.489856 5.66683 0.666667 5.66683H1.33333V5.00016C1.33333 4.38733 1.45404 3.78049 1.68856 3.21431C1.92308 2.64812 2.26683 2.13367 2.70017 1.70033C3.13351 1.26699 3.64796 0.923247 4.21414 0.688725C4.78033 0.454203 5.38716 0.333496 6 0.333496C6.61284 0.333496 7.21967 0.454203 7.78586 0.688725C8.35204 0.923247 8.86649 1.26699 9.29983 1.70033C9.73317 2.13367 10.0769 2.64812 10.3114 3.21431C10.546 3.78049 10.6667 4.38733 10.6667 5.00016V5.66683ZM1.33333 7.00016V12.3335H10.6667V7.00016H1.33333ZM5.33333 8.3335H6.66667V11.0002H5.33333V8.3335ZM9.33333 5.66683V5.00016C9.33333 4.11611 8.98214 3.26826 8.35702 2.64314C7.7319 2.01802 6.88406 1.66683 6 1.66683C5.11595 1.66683 4.2681 2.01802 3.64298 2.64314C3.01786 3.26826 2.66667 4.11611 2.66667 5.00016V5.66683H9.33333Z" fill="#49AFD0"/>
</svg>
