<svg width="14" height="14" viewBox="0 0 14 14" fill="none" xmlns="http://www.w3.org/2000/svg">
    <path d="M10.333 3.00016H13.6663V4.3335H12.333V13.0002C12.333 13.177 12.2628 13.3465 12.1377 13.4716C12.0127 13.5966 11.8432 13.6668 11.6663 13.6668H2.33301C2.1562 13.6668 1.98663 13.5966 1.8616 13.4716C1.73658 13.3465 1.66634 13.177 1.66634 13.0002V4.3335H0.333008V3.00016H3.66634V1.00016C3.66634 0.823352 3.73658 0.653782 3.8616 0.528758C3.98663 0.403734 4.1562 0.333496 4.33301 0.333496H9.66634C9.84315 0.333496 10.0127 0.403734 10.1377 0.528758C10.2628 0.653782 10.333 0.823352 10.333 1.00016V3.00016ZM10.9997 4.3335H2.99967V12.3335H10.9997V4.3335ZM4.99967 6.3335H6.33301V10.3335H4.99967V6.3335ZM7.66634 6.3335H8.99967V10.3335H7.66634V6.3335ZM4.99967 1.66683V3.00016H8.99967V1.66683H4.99967Z" fill="#49AFD0"/>
</svg>
