<svg width="20" height="20" viewBox="0 0 20 20" fill="none" xmlns="http://www.w3.org/2000/svg">
    <path d="M10.0004 20.0001C4.47737 20.0001 0.000366211 15.5231 0.000366211 10.0001C0.000366211 4.47708 4.47737 7.62939e-05 10.0004 7.62939e-05C15.5234 7.62939e-05 20.0004 4.47708 20.0004 10.0001C20.0004 15.5231 15.5234 20.0001 10.0004 20.0001ZM10.0004 18.0001C12.1221 18.0001 14.1569 17.1572 15.6572 15.6569C17.1575 14.1566 18.0004 12.1218 18.0004 10.0001C18.0004 7.87834 17.1575 5.84351 15.6572 4.34322C14.1569 2.84293 12.1221 2.00008 10.0004 2.00008C7.87863 2.00008 5.8438 2.84293 4.34351 4.34322C2.84322 5.84351 2.00037 7.87834 2.00037 10.0001C2.00037 12.1218 2.84322 14.1566 4.34351 15.6569C5.8438 17.1572 7.87863 18.0001 10.0004 18.0001ZM10.0004 8.58608L12.8284 5.75708L14.2434 7.17208L11.4144 10.0001L14.2434 12.8281L12.8284 14.2431L10.0004 11.4141L7.17237 14.2431L5.75737 12.8281L8.58637 10.0001L5.75737 7.17208L7.17237 5.75708L10.0004 8.58608Z" fill="#FF4D4F"/>
</svg>