<svg width="16" height="16" viewBox="0 0 16 16" fill="none" xmlns="http://www.w3.org/2000/svg">
    <path d="M12.0207 11.078L14.876 13.9326L13.9327 14.876L11.078 12.0206C10.0158 12.8721 8.69466 13.3352 7.33333 13.3333C4.02133 13.3333 1.33333 10.6453 1.33333 7.33331C1.33333 4.02131 4.02133 1.33331 7.33333 1.33331C10.6453 1.33331 13.3333 4.02131 13.3333 7.33331C13.3353 8.69465 12.8721 10.0158 12.0207 11.078ZM10.6833 10.5833C11.5294 9.71324 12.0019 8.54693 12 7.33331C12 4.75465 9.91133 2.66665 7.33333 2.66665C4.75466 2.66665 2.66666 4.75465 2.66666 7.33331C2.66666 9.91131 4.75466 12 7.33333 12C8.54695 12.0019 9.71325 11.5294 10.5833 10.6833L10.6833 10.5833Z" fill="#595959"/>
</svg>
